<svg width="32" height="32" viewBox="0 0 32 32" fill="none" xmlns="http://www.w3.org/2000/svg">
<path d="M9.57143 4.3335H5.28571C4.14907 4.3335 3.05898 4.68469 2.25526 5.30981C1.45153 5.93493 1 6.78277 1 7.66683V27.6668C1 28.5509 1.45153 29.3987 2.25526 30.0239C3.05898 30.649 4.14907 31.0002 5.28571 31.0002H26.7143C27.8509 31.0002 28.941 30.649 29.7447 30.0239C30.5485 29.3987 31 28.5509 31 27.6668V7.66683C31 6.78277 30.5485 5.93493 29.7447 5.30981C28.941 4.68469 27.8509 4.3335 26.7143 4.3335H22.4286" stroke="#FDFBF9" stroke-width="2" stroke-linecap="round" stroke-linejoin="round"/>
<path d="M11.7143 19.3333H20.2857M16 16V22.6667M9.57144 4.33333C9.57144 3.44928 10.023 2.60143 10.8267 1.97631C11.6304 1.35119 12.7205 1 13.8572 1H18.1429C19.2795 1 20.3696 1.35119 21.1733 1.97631C21.9771 2.60143 22.4286 3.44928 22.4286 4.33333C22.4286 5.21739 21.9771 6.06524 21.1733 6.69036C20.3696 7.31548 19.2795 7.66667 18.1429 7.66667H13.8572C12.7205 7.66667 11.6304 7.31548 10.8267 6.69036C10.023 6.06524 9.57144 5.21739 9.57144 4.33333Z" stroke="#FDFBF9" stroke-width="2" stroke-linecap="round" stroke-linejoin="round"/>
</svg>
