<svg width="30" height="31" viewBox="0 0 30 31" fill="none" xmlns="http://www.w3.org/2000/svg">
<path fill-rule="evenodd" clip-rule="evenodd" d="M15 3C8.1 3 2.5 8.6 2.5 15.5C2.5 22.4 8.1 28 15 28C21.9 28 27.5 22.4 27.5 15.5C27.5 8.6 21.9 3 15 3ZM22.95 21.5375C21.1625 19.3625 16.825 18.625 15 18.625C13.175 18.625 8.8375 19.3625 7.05 21.5375C5.775 19.8625 5 17.775 5 15.5C5 9.9875 9.4875 5.5 15 5.5C20.5125 5.5 25 9.9875 25 15.5C25 17.775 24.225 19.8625 22.95 21.5375ZM10.625 12.375C10.625 9.95 12.575 8 15 8C17.425 8 19.375 9.95 19.375 12.375C19.375 14.8 17.425 16.75 15 16.75C12.575 16.75 10.625 14.8 10.625 12.375Z" fill="#FEFDFC"/>
</svg>
