<svg width="33" height="33" viewBox="0 0 33 33" fill="none" xmlns="http://www.w3.org/2000/svg">
<path d="M1 16.1154C1 10.3139 1 7.41235 2.758 5.61082C4.5145 3.80774 7.3435 3.80774 13 3.80774H19C24.6565 3.80774 27.4855 3.80774 29.242 5.61082C31 7.41235 31 10.3139 31 16.1154V19.1924C31 24.9939 31 27.8954 29.242 29.697C27.4855 31.5 24.6565 31.5 19 31.5H13C7.3435 31.5 4.5145 31.5 2.758 29.697C1 27.8954 1 24.9939 1 19.1924V16.1154Z" stroke="#F2808A" stroke-width="1.5"/>
<path d="M8.49997 3.80769V1.5M23.5 3.80769V1.5M1.74997 11.5H30.25" stroke="#F2808A" stroke-width="1.5" stroke-linecap="round"/>
<path d="M25 23.8078C25 24.2158 24.842 24.6071 24.5606 24.8956C24.2793 25.1842 23.8978 25.3462 23.5 25.3462C23.1022 25.3462 22.7206 25.1842 22.4393 24.8956C22.158 24.6071 22 24.2158 22 23.8078C22 23.3998 22.158 23.0084 22.4393 22.7199C22.7206 22.4314 23.1022 22.2693 23.5 22.2693C23.8978 22.2693 24.2793 22.4314 24.5606 22.7199C24.842 23.0084 25 23.3998 25 23.8078ZM25 17.6539C25 18.062 24.842 18.4533 24.5606 18.7418C24.2793 19.0303 23.8978 19.1924 23.5 19.1924C23.1022 19.1924 22.7206 19.0303 22.4393 18.7418C22.158 18.4533 22 18.062 22 17.6539C22 17.2459 22.158 16.8546 22.4393 16.5661C22.7206 16.2776 23.1022 16.1155 23.5 16.1155C23.8978 16.1155 24.2793 16.2776 24.5606 16.5661C24.842 16.8546 25 17.2459 25 17.6539ZM17.5 23.8078C17.5 24.2158 17.3419 24.6071 17.0606 24.8956C16.7793 25.1842 16.3978 25.3462 16 25.3462C15.6022 25.3462 15.2206 25.1842 14.9393 24.8956C14.658 24.6071 14.5 24.2158 14.5 23.8078C14.5 23.3998 14.658 23.0084 14.9393 22.7199C15.2206 22.4314 15.6022 22.2693 16 22.2693C16.3978 22.2693 16.7793 22.4314 17.0606 22.7199C17.3419 23.0084 17.5 23.3998 17.5 23.8078ZM17.5 17.6539C17.5 18.062 17.3419 18.4533 17.0606 18.7418C16.7793 19.0303 16.3978 19.1924 16 19.1924C15.6022 19.1924 15.2206 19.0303 14.9393 18.7418C14.658 18.4533 14.5 18.062 14.5 17.6539C14.5 17.2459 14.658 16.8546 14.9393 16.5661C15.2206 16.2776 15.6022 16.1155 16 16.1155C16.3978 16.1155 16.7793 16.2776 17.0606 16.5661C17.3419 16.8546 17.5 17.2459 17.5 17.6539ZM9.99998 23.8078C9.99998 24.2158 9.84195 24.6071 9.56064 24.8956C9.27934 25.1842 8.89781 25.3462 8.49998 25.3462C8.10216 25.3462 7.72063 25.1842 7.43932 24.8956C7.15802 24.6071 6.99998 24.2158 6.99998 23.8078C6.99998 23.3998 7.15802 23.0084 7.43932 22.7199C7.72063 22.4314 8.10216 22.2693 8.49998 22.2693C8.89781 22.2693 9.27934 22.4314 9.56064 22.7199C9.84195 23.0084 9.99998 23.3998 9.99998 23.8078ZM9.99998 17.6539C9.99998 18.062 9.84195 18.4533 9.56064 18.7418C9.27934 19.0303 8.89781 19.1924 8.49998 19.1924C8.10216 19.1924 7.72063 19.0303 7.43932 18.7418C7.15802 18.4533 6.99998 18.062 6.99998 17.6539C6.99998 17.2459 7.15802 16.8546 7.43932 16.5661C7.72063 16.2776 8.10216 16.1155 8.49998 16.1155C8.89781 16.1155 9.27934 16.2776 9.56064 16.5661C9.84195 16.8546 9.99998 17.2459 9.99998 17.6539Z" fill="#F2808A"/>
</svg>
