<svg width="30" height="30" viewBox="0 0 30 30" fill="none" xmlns="http://www.w3.org/2000/svg">
<circle cx="15" cy="15" r="15" fill="#FFBE5C"/>
<path d="M8.1673 20.0955L11.7944 16.4684C11.9987 16.2641 12.2371 16.166 12.5096 16.1742C12.782 16.1823 13.0204 16.2889 13.2248 16.494C13.4121 16.6983 13.5057 16.9367 13.5057 17.2092C13.5057 17.4816 13.4121 17.72 13.2248 17.9244L8.90805 22.2666C8.7037 22.471 8.4653 22.5731 8.19285 22.5731C7.92039 22.5731 7.68199 22.471 7.47765 22.2666L5.28097 20.0699C5.09366 19.8826 5 19.6442 5 19.3547C5 19.0653 5.09366 18.8269 5.28097 18.6395C5.46828 18.4522 5.70668 18.3586 5.99617 18.3586C6.28565 18.3586 6.52405 18.4522 6.71137 18.6395L8.1673 20.0955ZM8.1673 11.9218L11.7944 8.29472C11.9987 8.09038 12.2371 7.9923 12.5096 8.00047C12.782 8.00865 13.0204 8.11524 13.2248 8.32027C13.4121 8.52461 13.5057 8.76301 13.5057 9.03547C13.5057 9.30792 13.4121 9.54632 13.2248 9.75066L8.90805 14.0929C8.7037 14.2973 8.4653 14.3994 8.19285 14.3994C7.92039 14.3994 7.68199 14.2973 7.47765 14.0929L5.28097 11.8963C5.09366 11.7089 5 11.4705 5 11.1811C5 10.8916 5.09366 10.6532 5.28097 10.4659C5.46828 10.2785 5.70668 10.1849 5.99617 10.1849C6.28565 10.1849 6.52405 10.2785 6.71137 10.4659L8.1673 11.9218ZM16.8263 20.9384C16.5368 20.9384 16.2943 20.8403 16.0988 20.6441C15.9034 20.448 15.8053 20.2055 15.8046 19.9167C15.8046 19.6272 15.9027 19.3847 16.0988 19.1892C16.295 18.9937 16.5375 18.8957 16.8263 18.895H23.9783C24.2678 18.895 24.5106 18.9931 24.7068 19.1892C24.9029 19.3854 25.0007 19.6279 25 19.9167C25 20.2062 24.9019 20.449 24.7057 20.6452C24.5096 20.8413 24.2671 20.9391 23.9783 20.9384H16.8263ZM16.8263 12.7647C16.5368 12.7647 16.2943 12.6666 16.0988 12.4705C15.9034 12.2743 15.8053 12.0318 15.8046 11.743C15.8046 11.4535 15.9027 11.211 16.0988 11.0155C16.295 10.8201 16.5375 10.722 16.8263 10.7213H23.9783C24.2678 10.7213 24.5106 10.8194 24.7068 11.0155C24.9029 11.2117 25.0007 11.4542 25 11.743C25 12.0325 24.9019 12.2753 24.7057 12.4715C24.5096 12.6676 24.2671 12.7654 23.9783 12.7647H16.8263Z" fill="#FEFDFC"/>
</svg>
