<svg width="30" height="30" viewBox="0 0 30 30" fill="none" xmlns="http://www.w3.org/2000/svg">
<path d="M14.9997 30.0004C23.1913 30.0004 30 23.2061 30 15.0001C30 6.80844 23.1763 -0.000244141 14.9846 -0.000244141C6.77919 -0.000244141 0 6.80844 0 15.0001C0 23.2061 6.79363 30.0004 14.9997 30.0004ZM14.9859 17.2063C14.2059 17.2063 13.7799 16.7501 13.7498 15.9701L13.544 8.70654C13.5145 7.8971 14.1319 7.32422 14.9702 7.32422C15.7941 7.32422 16.4259 7.91216 16.3971 8.72097L16.1906 15.9714C16.1611 16.7651 15.72 17.2069 14.9853 17.2069M14.9853 22.6188C14.1319 22.6188 13.3375 21.9424 13.3375 21.0301C13.3375 20.1183 14.1175 19.4426 14.9853 19.4426C15.838 19.4426 16.6317 20.1039 16.6317 21.0301C16.6317 21.9568 15.8229 22.6188 14.9853 22.6188Z" fill="#DC362E"/>
</svg>
