<svg width="30" height="30" viewBox="0 0 30 30" fill="none" xmlns="http://www.w3.org/2000/svg">
<path d="M15.5 0C12.5333 0 9.63319 0.879735 7.16645 2.52796C4.69971 4.17618 2.77713 6.51886 1.64181 9.25975C0.506499 12.0006 0.209449 15.0166 0.788227 17.9264C1.36701 20.8361 2.79562 23.5088 4.8934 25.6066C6.99119 27.7044 9.66393 29.133 12.5736 29.7118C15.4834 30.2906 18.4994 29.9935 21.2403 28.8582C23.9811 27.7229 26.3238 25.8003 27.972 23.3335C29.6203 20.8668 30.5 17.9667 30.5 15C30.4958 11.023 28.9141 7.21017 26.102 4.39804C23.2898 1.5859 19.477 0.00419974 15.5 0ZM20.9317 18.799C21.0389 18.9062 21.124 19.0335 21.182 19.1736C21.24 19.3136 21.2699 19.4638 21.2699 19.6154C21.2699 19.767 21.24 19.9171 21.182 20.0572C21.124 20.1973 21.0389 20.3245 20.9317 20.4317C20.8245 20.5389 20.6973 20.624 20.5572 20.682C20.4171 20.74 20.267 20.7699 20.1154 20.7699C19.9638 20.7699 19.8137 20.74 19.6736 20.682C19.5335 20.624 19.4062 20.5389 19.299 20.4317L15.5 16.6312L11.701 20.4317C11.5938 20.5389 11.4665 20.624 11.3264 20.682C11.1864 20.74 11.0362 20.7699 10.8846 20.7699C10.733 20.7699 10.5829 20.74 10.4428 20.682C10.3027 20.624 10.1755 20.5389 10.0683 20.4317C9.96107 20.3245 9.87603 20.1973 9.81801 20.0572C9.75999 19.9171 9.73013 19.767 9.73013 19.6154C9.73013 19.4638 9.75999 19.3136 9.81801 19.1736C9.87603 19.0335 9.96107 18.9062 10.0683 18.799L13.8688 15L10.0683 11.201C9.85176 10.9845 9.73013 10.6908 9.73013 10.3846C9.73013 10.0784 9.85176 9.78478 10.0683 9.56827C10.2848 9.35176 10.5784 9.23013 10.8846 9.23013C11.1908 9.23013 11.4845 9.35176 11.701 9.56827L15.5 13.3687L19.299 9.56827C19.4062 9.46106 19.5335 9.37602 19.6736 9.31801C19.8137 9.25999 19.9638 9.23013 20.1154 9.23013C20.267 9.23013 20.4171 9.25999 20.5572 9.31801C20.6973 9.37602 20.8245 9.46106 20.9317 9.56827C21.0389 9.67547 21.124 9.80274 21.182 9.94281C21.24 10.0829 21.2699 10.233 21.2699 10.3846C21.2699 10.5362 21.24 10.6863 21.182 10.8264C21.124 10.9665 21.0389 11.0938 20.9317 11.201L17.1313 15L20.9317 18.799Z" fill="#777679"/>
</svg>
