<svg width="30" height="30" viewBox="0 0 30 30" fill="none" xmlns="http://www.w3.org/2000/svg">
<g clip-path="url(#clip0_1419_2250)">
<path d="M4.895 25.605C3.46234 24.2213 2.31961 22.5661 1.53348 20.7361C0.747341 18.906 0.333547 16.9377 0.31624 14.946C0.298933 12.9543 0.678458 10.9791 1.43267 9.13569C2.18688 7.29224 3.30068 5.61746 4.70907 4.20907C6.11746 2.80068 7.79224 1.68688 9.63569 0.932672C11.4791 0.178458 13.4543 -0.201067 15.446 -0.18376C17.4377 -0.166453 19.406 0.247341 21.2361 1.03348C23.0661 1.81961 24.7213 2.96234 26.105 4.395C28.8374 7.22403 30.3493 11.0131 30.3151 14.946C30.2809 18.879 28.7034 22.6412 25.9223 25.4223C23.1412 28.2034 19.379 29.7809 15.446 29.8151C11.5131 29.8493 7.72403 28.3374 4.895 25.605ZM11 9V21H14V9H11ZM17 9V21H20V9H17Z" fill="#3798F0"/>
</g>
<defs>
<clipPath id="clip0_1419_2250">
<rect width="30" height="30" fill="white" transform="translate(0.5)"/>
</clipPath>
</defs>
</svg>
