<svg width="24" height="26" viewBox="0 0 24 26" fill="none" xmlns="http://www.w3.org/2000/svg">
<path fill-rule="evenodd" clip-rule="evenodd" d="M12 0.5C14.9837 0.5 17.8452 1.68526 19.955 3.79505C22.0647 5.90483 23.25 8.76631 23.25 11.75C23.25 15.5925 21.155 18.7375 18.9475 20.9938C17.8444 22.1086 16.641 23.1196 15.3525 24.0138L14.82 24.3762L14.57 24.5425L14.0988 24.8425L13.6788 25.0988L13.1588 25.4012C12.8056 25.6022 12.4063 25.7079 12 25.7079C11.5937 25.7079 11.1944 25.6022 10.8412 25.4012L10.3212 25.0988L9.67125 24.6987L9.43125 24.5425L8.91875 24.2013C7.52872 23.2604 6.23383 22.1861 5.0525 20.9938C2.845 18.7362 0.75 15.5925 0.75 11.75C0.75 8.76631 1.93526 5.90483 4.04505 3.79505C6.15483 1.68526 9.01631 0.5 12 0.5ZM12 3C9.67936 3 7.45376 3.92187 5.81282 5.56282C4.17187 7.20376 3.25 9.42936 3.25 11.75C3.25 14.6525 4.84 17.2 6.83875 19.245C7.69828 20.1149 8.62718 20.9133 9.61625 21.6325L10.1887 22.04C10.3737 22.1688 10.5512 22.2887 10.7225 22.4L11.21 22.7125L11.6388 22.9738L12 23.185L12.5688 22.8487L13.0275 22.5613C13.2712 22.4062 13.5338 22.2325 13.8113 22.04L14.3837 21.6325C15.3728 20.9133 16.3017 20.1149 17.1612 19.245C19.16 17.2013 20.75 14.6525 20.75 11.75C20.75 9.42936 19.8281 7.20376 18.1872 5.56282C16.5462 3.92187 14.3206 3 12 3ZM12 6.75C13.3261 6.75 14.5979 7.27678 15.5355 8.21447C16.4732 9.15215 17 10.4239 17 11.75C17 13.0761 16.4732 14.3479 15.5355 15.2855C14.5979 16.2232 13.3261 16.75 12 16.75C10.6739 16.75 9.40215 16.2232 8.46447 15.2855C7.52678 14.3479 7 13.0761 7 11.75C7 10.4239 7.52678 9.15215 8.46447 8.21447C9.40215 7.27678 10.6739 6.75 12 6.75ZM12 9.25C11.337 9.25 10.7011 9.51339 10.2322 9.98223C9.76339 10.4511 9.5 11.087 9.5 11.75C9.5 12.413 9.76339 13.0489 10.2322 13.5178C10.7011 13.9866 11.337 14.25 12 14.25C12.663 14.25 13.2989 13.9866 13.7678 13.5178C14.2366 13.0489 14.5 12.413 14.5 11.75C14.5 11.087 14.2366 10.4511 13.7678 9.98223C13.2989 9.51339 12.663 9.25 12 9.25Z" fill="#777679"/>
</svg>
