<svg width="30" height="30" viewBox="0 0 30 30" fill="none" xmlns="http://www.w3.org/2000/svg">
<g clip-path="url(#clip0_2148_1645)">
<path d="M21.006 0H8.994C8.19994 0 7.43841 0.315438 6.87692 0.876922C6.31544 1.43841 6 2.19994 6 2.994V27.0045C6 28.659 7.341 30 8.994 30H21.0045C21.7987 30 22.5604 29.6846 23.1221 29.1232C23.6838 28.5617 23.9996 27.8002 24 27.006V2.994C24 2.19994 23.6846 1.43841 23.1231 0.876922C22.5616 0.315438 21.8001 0 21.006 0ZM15 28.5C13.965 28.5 13.125 27.8295 13.125 27C13.125 26.1705 13.965 25.5 15 25.5C16.035 25.5 16.875 26.1705 16.875 27C16.875 27.8295 16.035 28.5 15 28.5ZM21 24H9V3H21V24Z" fill="#777679"/>
</g>
<defs>
<clipPath id="clip0_2148_1645">
<rect width="30" height="30" fill="white"/>
</clipPath>
</defs>
</svg>
