<svg width="40" height="40" viewBox="0 0 40 40" fill="none" xmlns="http://www.w3.org/2000/svg">
<path fill-rule="evenodd" clip-rule="evenodd" d="M19.9999 3.33337C10.7999 3.33337 3.33325 10.8 3.33325 20C3.33325 29.2 10.7999 36.6667 19.9999 36.6667C29.1999 36.6667 36.6666 29.2 36.6666 20C36.6666 10.8 29.1999 3.33337 19.9999 3.33337ZM30.5999 28.05C28.2166 25.15 22.4333 24.1667 19.9999 24.1667C17.5666 24.1667 11.7833 25.15 9.39992 28.05C7.69992 25.8167 6.66659 23.0334 6.66659 20C6.66659 12.65 12.6499 6.66671 19.9999 6.66671C27.3499 6.66671 33.3333 12.65 33.3333 20C33.3333 23.0334 32.2999 25.8167 30.5999 28.05ZM14.1666 15.8334C14.1666 12.6 16.7666 10 19.9999 10C23.2333 10 25.8333 12.6 25.8333 15.8334C25.8333 19.0667 23.2333 21.6667 19.9999 21.6667C16.7666 21.6667 14.1666 19.0667 14.1666 15.8334Z" fill="#F2808A"/>
</svg>
