<svg width="21" height="21" viewBox="0 0 21 21" fill="none" xmlns="http://www.w3.org/2000/svg">
  <path d="M13 0.5C11.8162 0.501061 10.6495 0.782072 9.59505 1.32009C8.54061 1.8581 7.62835 2.63787 6.93277 3.59572C6.23719 4.55357 5.778 5.66235 5.5927 6.83153C5.4074 8.00071 5.50125 9.19713 5.86656 10.3231L0.469375 15.7194C0.399749 15.7891 0.344539 15.8718 0.306898 15.9629C0.269257 16.0539 0.249923 16.1515 0.25 16.25V20C0.25 20.1989 0.329018 20.3897 0.46967 20.5303C0.610322 20.671 0.801088 20.75 1 20.75H4.75C4.94891 20.75 5.13968 20.671 5.28033 20.5303C5.42098 20.3897 5.5 20.1989 5.5 20V18.5H7C7.19891 18.5 7.38968 18.421 7.53033 18.2803C7.67098 18.1397 7.75 17.9489 7.75 17.75V16.25H9.25C9.34852 16.2501 9.44609 16.2307 9.53714 16.1931C9.62818 16.1555 9.71092 16.1003 9.78063 16.0306L10.6769 15.1334C11.7077 15.4681 12.7988 15.5754 13.875 15.4479C14.9513 15.3205 15.9871 14.9613 16.9112 14.3951C17.8353 13.8289 18.6257 13.0691 19.228 12.1681C19.8303 11.2671 20.2302 10.2463 20.4001 9.17593C20.5701 8.10556 20.506 7.01108 20.2124 5.96785C19.9187 4.92462 19.4025 3.95743 18.6991 3.13286C17.9958 2.3083 17.1222 1.64595 16.1383 1.19143C15.1544 0.736917 14.0838 0.501024 13 0.5ZM14.875 7.625C14.5783 7.625 14.2883 7.53703 14.0416 7.3722C13.795 7.20738 13.6027 6.97311 13.4892 6.69903C13.3756 6.42494 13.3459 6.12334 13.4038 5.83236C13.4617 5.54139 13.6046 5.27412 13.8143 5.06434C14.0241 4.85456 14.2914 4.7117 14.5824 4.65382C14.8733 4.59594 15.1749 4.62565 15.449 4.73918C15.7231 4.85271 15.9574 5.04497 16.1222 5.29165C16.287 5.53832 16.375 5.82833 16.375 6.125C16.375 6.52282 16.217 6.90436 15.9357 7.18566C15.6544 7.46696 15.2728 7.625 14.875 7.625Z" fill="#F2808A"/>
</svg>
